<svg width="20" height="20" viewBox="0 0 20 20" fill="none" xmlns="http://www.w3.org/2000/svg">
    <path d="M8.959 3.867 5.267 2.042c-1.991-.975-3.625.016-3.625 2.2v12.366c0 .95.792 1.725 1.759 1.725h6.183a.836.836 0 0 0 .833-.833V6.175c0-.875-.658-1.917-1.458-2.308zm-1.483 7.591H4.584a.63.63 0 0 1-.625-.625.63.63 0 0 1 .625-.625h2.892a.624.624 0 1 1 0 1.25zm0-3.333H4.584a.63.63 0 0 1-.625-.625.63.63 0 0 1 .625-.625h2.892a.624.624 0 1 1 0 1.25zM18.333 15.033v1.217c0 1.15-.933 2.083-2.083 2.083h-3.775a.804.804 0 0 1-.808-.808v-1.8c.891.108 1.833-.15 2.508-.692a3.3 3.3 0 0 0 2.083.734c.775 0 1.5-.275 2.075-.734zM18.333 12.542v.008a2.083 2.083 0 0 1-2.075 1.967 2.084 2.084 0 0 1-2.083-2.084c0 1.275-1.175 2.3-2.508 2.042V10a.835.835 0 0 1 1.016-.817l1.492.334.4.091 1.7.384c.408.083.783.225 1.108.433a1.811 1.811 0 0 1 .25.208c.384.384.634.942.692 1.759 0 .05.008.1.008.15z" fill="#9FB6FB"/>
</svg>
