<svg width="20" height="20" viewBox="0 0 20 20" fill="none" xmlns="http://www.w3.org/2000/svg">
    <path d="M15 2.5H5c-1.842 0-3.333 1.483-3.333 3.308v8.384C1.667 16.017 3.158 17.5 5 17.5h10c1.842 0 3.333-1.483 3.333-3.308V5.808C18.333 3.983 16.842 2.5 15 2.5zM7.083 5.975c1.059 0 1.925.867 1.925 1.925a1.931 1.931 0 0 1-1.925 1.925A1.931 1.931 0 0 1 5.158 7.9c0-1.058.867-1.925 1.925-1.925zm3.225 7.908a.422.422 0 0 1-.308.134H4.167a.422.422 0 0 1-.309-.134.433.433 0 0 1-.108-.316 2.957 2.957 0 0 1 2.658-2.642 7.21 7.21 0 0 1 1.342 0 2.95 2.95 0 0 1 2.658 2.642.395.395 0 0 1-.1.316zm5.525.075h-1.666a.63.63 0 0 1-.625-.625.63.63 0 0 1 .625-.625h1.666a.63.63 0 0 1 .625.625.63.63 0 0 1-.625.625zm0-3.333H12.5a.63.63 0 0 1-.625-.625.63.63 0 0 1 .625-.625h3.333a.63.63 0 0 1 .625.625.63.63 0 0 1-.625.625zm0-3.333h-4.166a.63.63 0 0 1-.625-.625.63.63 0 0 1 .625-.625h4.166a.63.63 0 0 1 .625.625.63.63 0 0 1-.625.625z" fill="#9FB6FB"/>
</svg>
