<svg width="87" height="16" viewBox="0 0 87 16" fill="none" xmlns="http://www.w3.org/2000/svg">
    <path fill-rule="evenodd" clip-rule="evenodd" d="M2.275 15.448c.87.536 2.587-.948 4.245-3.496l8.053 1.773c.108.023.172-.117.091-.2L8.803 7.552c1.283-3.17 1.616-5.872.686-6.444-.98-.603-3.037 1.357-4.871 4.515a1.968 1.968 0 0 0-.527-.585l-1.353-.994C1.91 3.433.81 3.655.28 4.536c-.53.882-.287 2.09.542 2.699l1.352.994c.3.22.635.332.966.343-1.43 3.354-1.837 6.278-.865 6.876z" fill="#5880F8"/>
    <path d="M29.217 10.928v-9.19h2.724v9.19c0 .887-.195 1.649-.583 2.286a3.89 3.89 0 0 1-1.594 1.458c-.668.34-1.421.51-2.26.51-.867 0-1.636-.146-2.304-.438a3.465 3.465 0 0 1-1.575-1.338c-.383-.608-.574-1.376-.574-2.305h2.741c0 .486.067.871.2 1.157.14.285.338.489.593.61.255.122.562.182.92.182.346 0 .647-.082.902-.246.255-.164.452-.403.592-.72.145-.315.218-.7.218-1.156zM33.69 10.172v-.191c0-.723.103-1.388.31-1.995a4.614 4.614 0 0 1 .901-1.594c.395-.45.88-.798 1.457-1.047.577-.255 1.24-.383 1.986-.383.747 0 1.412.128 1.995.383a4.023 4.023 0 0 1 1.466 1.047c.401.45.705.98.911 1.594.207.607.31 1.272.31 1.995v.191c0 .717-.103 1.381-.31 1.995a4.649 4.649 0 0 1-.91 1.594 4.04 4.04 0 0 1-1.458 1.047c-.577.25-1.239.374-1.986.374-.747 0-1.412-.125-1.995-.374a4.128 4.128 0 0 1-1.466-1.047A4.728 4.728 0 0 1 34 12.167a6.214 6.214 0 0 1-.31-1.995zm2.623-.191v.191c0 .413.036.798.11 1.157.072.358.187.674.345.947.164.267.377.477.638.629.261.151.58.227.956.227.365 0 .677-.076.938-.227.262-.152.471-.362.629-.629.158-.273.273-.589.346-.947.08-.359.119-.744.119-1.157v-.191c0-.401-.04-.777-.119-1.13a2.98 2.98 0 0 0-.355-.947 1.764 1.764 0 0 0-.629-.656c-.26-.158-.576-.237-.947-.237-.37 0-.686.08-.947.237a1.864 1.864 0 0 0-.629.656 3.126 3.126 0 0 0-.346.947c-.073.353-.11.729-.11 1.13zM44.638 1.01h2.623v11.73L46.997 15h-2.359V1.01zm8.863 8.962v.19c0 .736-.079 1.41-.237 2.023a4.608 4.608 0 0 1-.71 1.594c-.322.443-.723.79-1.203 1.038-.473.243-1.032.365-1.676.365-.6 0-1.123-.122-1.566-.365a3.18 3.18 0 0 1-1.103-1.029 5.847 5.847 0 0 1-.72-1.558 11.852 11.852 0 0 1-.409-1.949v-.419c.091-.704.228-1.354.41-1.949a5.848 5.848 0 0 1 .72-1.557 3.18 3.18 0 0 1 1.102-1.03c.437-.242.953-.364 1.548-.364.65 0 1.215.125 1.694.374.486.242.887.589 1.203 1.038.321.443.558.971.71 1.585.158.607.237 1.278.237 2.013zm-2.623.19v-.19c0-.401-.03-.778-.092-1.13a2.984 2.984 0 0 0-.291-.938 1.648 1.648 0 0 0-.574-.647c-.237-.157-.543-.236-.92-.236-.358 0-.662.06-.91.182a1.687 1.687 0 0 0-.62.51c-.158.218-.276.48-.355.783a4.787 4.787 0 0 0-.146.984v1.193c.018.48.097.905.237 1.275.146.364.364.653.656.865.297.207.683.31 1.156.31.37 0 .678-.073.92-.218a1.47 1.47 0 0 0 .565-.62c.14-.267.237-.58.292-.938.054-.364.082-.759.082-1.184zM58.028 1.738v13.261h-2.733V1.739h2.733zm7.943 0-5.256 6.549-3.033 3.26-.492-2.586 2.05-2.806 3.379-4.417h3.352zm-3.106 13.261-3.908-6.13 2.022-1.694L66.1 15h-3.234zM66.317 10.172v-.191c0-.723.103-1.388.31-1.995a4.616 4.616 0 0 1 .901-1.594 4.04 4.04 0 0 1 1.458-1.047c.576-.255 1.238-.383 1.985-.383.747 0 1.412.128 1.995.383a4.023 4.023 0 0 1 1.467 1.047c.4.45.704.98.91 1.594.207.607.31 1.272.31 1.995v.191c0 .717-.103 1.381-.31 1.995a4.649 4.649 0 0 1-.91 1.594c-.395.45-.881.798-1.458 1.047-.577.25-1.239.374-1.985.374-.747 0-1.412-.125-1.995-.374a4.128 4.128 0 0 1-1.467-1.047 4.73 4.73 0 0 1-.902-1.594 6.217 6.217 0 0 1-.31-1.995zm2.623-.191v.191c0 .413.037.798.11 1.157.072.358.188.674.346.947.163.267.376.477.637.629.261.151.58.227.957.227.364 0 .677-.076.938-.227.26-.152.47-.362.628-.629a3.13 3.13 0 0 0 .346-.947c.08-.359.119-.744.119-1.157v-.191c0-.401-.04-.777-.119-1.13a2.983 2.983 0 0 0-.355-.947 1.764 1.764 0 0 0-.628-.656c-.262-.158-.577-.237-.948-.237-.37 0-.686.08-.947.237a1.862 1.862 0 0 0-.629.656 3.126 3.126 0 0 0-.346.947c-.073.353-.109.729-.109 1.13zM79.889 1v14h-2.624V1h2.624zM86.1 5.144l-4.281 4.882-2.296 2.323-.956-1.895 1.822-2.313 2.56-2.997h3.15zM83.377 15l-2.914-4.554 1.812-1.585L86.401 15h-3.024z" fill="#5880F8"/>
</svg>
