<svg width="20" height="20" viewBox="0 0 20 20" fill="none" xmlns="http://www.w3.org/2000/svg">
<path d="M4.1083 18.9583C3.7583 18.9583 3.4333 18.875 3.14163 18.7083C2.49997 18.3333 2.1333 17.575 2.1333 16.6333V4.88329C2.1333 2.76663 3.8583 1.04163 5.97497 1.04163H14.0166C16.1333 1.04163 17.8583 2.76663 17.8583 4.88329V16.625C17.8583 17.5666 17.4916 18.325 16.85 18.7C16.2083 19.075 15.3666 19.0333 14.5416 18.575L10.475 16.3166C10.2333 16.1833 9.7583 16.1833 9.51663 16.3166L5.44997 18.575C4.99997 18.825 4.54163 18.9583 4.1083 18.9583ZM5.9833 2.29163C4.5583 2.29163 3.39163 3.45829 3.39163 4.88329V16.625C3.39163 17.1166 3.5333 17.4833 3.7833 17.625C4.0333 17.7666 4.42497 17.725 4.84997 17.4833L8.91663 15.225C9.5333 14.8833 10.4666 14.8833 11.0833 15.225L15.15 17.4833C15.575 17.725 15.9666 17.775 16.2166 17.625C16.4666 17.475 16.6083 17.1083 16.6083 16.625V4.88329C16.6083 3.45829 15.4416 2.29163 14.0166 2.29163H5.9833Z" fill="#A2A4A9"/>
<path d="M9.24157 11.0417C9.08324 11.0417 8.9249 10.9834 8.7999 10.8584L7.5499 9.60837C7.30824 9.3667 7.30824 8.9667 7.5499 8.72503C7.79157 8.48337 8.19157 8.48337 8.43324 8.72503L9.24157 9.53337L12.1332 6.6417C12.3749 6.40003 12.7749 6.40003 13.0166 6.6417C13.2582 6.88337 13.2582 7.28337 13.0166 7.52503L9.68324 10.8584C9.55824 10.9834 9.3999 11.0417 9.24157 11.0417Z" fill="#A2A4A9"/>
</svg>
