<svg width="20" height="20" viewBox="0 0 20 20" fill="none" xmlns="http://www.w3.org/2000/svg">
<path d="M14.0176 1.5918H5.98424C4.21758 1.5918 2.76758 3.0418 2.76758 4.80846V16.5501C2.76758 18.0501 3.84258 18.6835 5.15924 17.9585L9.22591 15.7001C9.65924 15.4585 10.3592 15.4585 10.7842 15.7001L14.8509 17.9585C16.1676 18.6918 17.2426 18.0585 17.2426 16.5501V4.80846C17.2342 3.0418 15.7926 1.5918 14.0176 1.5918ZM13.0176 7.52513L9.68424 10.8585C9.55924 10.9835 9.40091 11.0418 9.24258 11.0418C9.08425 11.0418 8.92591 10.9835 8.80091 10.8585L7.55091 9.60846C7.30925 9.3668 7.30925 8.9668 7.55091 8.72513C7.79258 8.48346 8.19258 8.48346 8.43424 8.72513L9.24258 9.53346L12.1342 6.6418C12.3759 6.40013 12.7759 6.40013 13.0176 6.6418C13.2592 6.88346 13.2592 7.28346 13.0176 7.52513Z" fill="#2E60F6"/>
</svg>
