<svg width="84" height="15" viewBox="0 0 84 15" fill="none" xmlns="http://www.w3.org/2000/svg">
    <path d="M20.23 14.866c-1.903 0-3.263-.614-4.078-1.84l2.175-2.097c.52.814 1.172 1.22 1.954 1.22.93 0 1.501-.538 1.716-1.615l1.037-5.313h-4.112l.526-2.63h7.444l-1.547 7.753c-.317 1.616-.89 2.774-1.716 3.473-.827.7-1.96 1.049-3.399 1.049zM31.406 14.78c-.974 0-1.824-.172-2.55-.516-.724-.355-1.285-.854-1.682-1.496-.396-.642-.594-1.386-.594-2.235 0-1.02.243-1.936.73-2.75a5.222 5.222 0 0 1 2.023-1.926c.86-.47 1.83-.704 2.906-.704.974 0 1.824.177 2.549.533.725.343 1.286.836 1.682 1.478.397.63.595 1.37.595 2.218 0 1.02-.244 1.942-.73 2.767a5.223 5.223 0 0 1-2.023 1.926c-.85.47-1.818.705-2.906.705zm.187-2.63c.646 0 1.173-.241 1.58-.723.408-.48.612-1.105.612-1.873 0-.55-.153-.986-.459-1.307-.306-.32-.73-.481-1.274-.481-.646 0-1.173.24-1.58.722-.409.481-.612 1.111-.612 1.89 0 .55.152.986.458 1.307.306.31.731.464 1.275.464zM44.628 5.153c.68 0 1.314.172 1.903.515.6.333 1.082.82 1.445 1.462.362.641.544 1.392.544 2.252 0 1.02-.227 1.942-.68 2.767a5.01 5.01 0 0 1-1.819 1.926c-.759.47-1.591.705-2.498.705-1.427 0-2.407-.493-2.94-1.479l-.255 1.324h-3.075l2.515-12.756h3.229l-.816 4.143c.69-.573 1.507-.86 2.447-.86zm-1.563 6.996c.645 0 1.172-.24 1.58-.722.408-.48.612-1.105.612-1.873 0-.55-.159-.986-.476-1.307-.306-.32-.73-.481-1.275-.481-.645 0-1.172.24-1.58.722-.408.481-.612 1.111-.612 1.89 0 .55.153.986.459 1.307.317.31.748.464 1.291.464zM56.818 8.127l3.994 6.498h-3.756l-2.736-4.332-1.547 1.41-.577 2.922h-3.314L51.26 2.591h3.314l-.969 4.917 5.37-4.917h3.96l-6.118 5.536z" fill="#5880F8"/>
    <path d="M65.918 14.78c-.975 0-1.824-.172-2.55-.516-.724-.355-1.285-.854-1.682-1.496-.396-.642-.595-1.386-.595-2.235 0-1.02.244-1.936.731-2.75a5.222 5.222 0 0 1 2.022-1.926c.861-.47 1.83-.704 2.906-.704.975 0 1.824.177 2.55.533.725.343 1.285.836 1.682 1.478.396.63.595 1.37.595 2.218 0 1.02-.244 1.942-.731 2.767a5.223 5.223 0 0 1-2.022 1.926c-.85.47-1.819.705-2.906.705zm.187-2.63c.645 0 1.172-.241 1.58-.723.408-.48.612-1.105.612-1.873 0-.55-.153-.986-.459-1.307-.306-.32-.73-.481-1.274-.481-.646 0-1.173.24-1.581.722-.408.481-.612 1.111-.612 1.89 0 .55.153.986.46 1.307.305.31.73.464 1.274.464zM79.276 9.433l3.093 5.192h-3.773l-1.886-3.18-1.326 1.169-.39 2.011h-3.23L74.28 1.869h3.23l-1.31 6.619 3.722-3.18H84l-4.724 4.125z" fill="#5880F8"/>
    <g clip-path="url(#m1txkavkha)">
        <path d="M8.808 13.59 7.414 15 6.02 13.59c-2.74-.64-4.784-3.125-4.784-6.09 0-3.45 2.767-6.25 6.178-6.25 3.41 0 6.178 2.8 6.178 6.25 0 2.965-2.045 5.45-4.784 6.09zM3.72 9.635c.907 1.369 2.269 2.24 3.792 2.24 1.522 0 2.884-.87 3.79-2.24a5.506 5.506 0 0 0-3.79-1.51 5.506 5.506 0 0 0-3.792 1.51zm3.693-2.76c.491 0 .963-.198 1.31-.55a1.886 1.886 0 0 0 0-2.65 1.843 1.843 0 0 0-1.31-.55c-.492 0-.963.198-1.31.55a1.886 1.886 0 0 0 0 2.65c.347.352.818.55 1.31.55z" fill="#5880F8"/>
    </g>
    <defs>
        <clipPath id="m1txkavkha">
            <path fill="#fff" d="M0 0h14.828v15H0z"/>
        </clipPath>
    </defs>
</svg>
