<svg width="20" height="20" viewBox="0 0 20 20" fill="none" xmlns="http://www.w3.org/2000/svg">
<path d="M6.66675 4.79163C6.32508 4.79163 6.04175 4.50829 6.04175 4.16663V1.66663C6.04175 1.32496 6.32508 1.04163 6.66675 1.04163C7.00841 1.04163 7.29175 1.32496 7.29175 1.66663V4.16663C7.29175 4.50829 7.00841 4.79163 6.66675 4.79163Z" fill="#A2A4A9"/>
<path d="M13.3333 4.79163C12.9916 4.79163 12.7083 4.50829 12.7083 4.16663V1.66663C12.7083 1.32496 12.9916 1.04163 13.3333 1.04163C13.6749 1.04163 13.9583 1.32496 13.9583 1.66663V4.16663C13.9583 4.50829 13.6749 4.79163 13.3333 4.79163Z" fill="#A2A4A9"/>
<path d="M7.08333 12.0833C6.975 12.0833 6.86667 12.0583 6.76667 12.0167C6.65833 11.975 6.575 11.9166 6.49167 11.8416C6.34167 11.6833 6.25 11.475 6.25 11.25C6.25 11.1416 6.275 11.0333 6.31667 10.9333C6.35833 10.8333 6.41667 10.7416 6.49167 10.6583C6.575 10.5833 6.65833 10.525 6.76667 10.4833C7.06667 10.3583 7.44167 10.425 7.675 10.6583C7.825 10.8166 7.91667 11.0333 7.91667 11.25C7.91667 11.3 7.90833 11.3583 7.9 11.4167C7.89167 11.4667 7.875 11.5166 7.85 11.5666C7.83333 11.6166 7.80833 11.6666 7.775 11.7166C7.75 11.7583 7.70833 11.8 7.675 11.8416C7.51667 11.9916 7.3 12.0833 7.08333 12.0833Z" fill="#A2A4A9"/>
<path d="M10.0001 12.0833C9.89175 12.0833 9.78341 12.0584 9.68341 12.0167C9.57508 11.975 9.49175 11.9167 9.40842 11.8417C9.25842 11.6833 9.16675 11.475 9.16675 11.25C9.16675 11.1417 9.19175 11.0333 9.23342 10.9333C9.27508 10.8333 9.33342 10.7417 9.40842 10.6584C9.49175 10.5834 9.57508 10.525 9.68341 10.4833C9.98341 10.35 10.3584 10.425 10.5917 10.6584C10.7417 10.8167 10.8334 11.0333 10.8334 11.25C10.8334 11.3 10.8251 11.3584 10.8167 11.4167C10.8084 11.4667 10.7917 11.5167 10.7667 11.5667C10.7501 11.6167 10.7251 11.6667 10.6917 11.7167C10.6667 11.7583 10.6251 11.8 10.5917 11.8417C10.4334 11.9917 10.2167 12.0833 10.0001 12.0833Z" fill="#A2A4A9"/>
<path d="M12.9166 12.0833C12.8083 12.0833 12.6999 12.0584 12.5999 12.0167C12.4916 11.975 12.4083 11.9167 12.3249 11.8417C12.2916 11.8 12.2583 11.7583 12.2249 11.7167C12.1916 11.6667 12.1666 11.6167 12.1499 11.5667C12.1249 11.5167 12.1083 11.4667 12.0999 11.4167C12.0916 11.3584 12.0833 11.3 12.0833 11.25C12.0833 11.0333 12.1749 10.8167 12.3249 10.6584C12.4083 10.5834 12.4916 10.525 12.5999 10.4833C12.9083 10.35 13.2749 10.425 13.5083 10.6584C13.6583 10.8167 13.7499 11.0333 13.7499 11.25C13.7499 11.3 13.7416 11.3584 13.7333 11.4167C13.7249 11.4667 13.7083 11.5167 13.6833 11.5667C13.6666 11.6167 13.6416 11.6667 13.6083 11.7167C13.5833 11.7583 13.5416 11.8 13.5083 11.8417C13.3499 11.9917 13.1333 12.0833 12.9166 12.0833Z" fill="#A2A4A9"/>
<path d="M7.08333 15C6.975 15 6.86667 14.975 6.76667 14.9333C6.66667 14.8917 6.575 14.8333 6.49167 14.7583C6.34167 14.6 6.25 14.3833 6.25 14.1667C6.25 14.0583 6.275 13.95 6.31667 13.85C6.35833 13.7417 6.41667 13.65 6.49167 13.575C6.8 13.2667 7.36667 13.2667 7.675 13.575C7.825 13.7333 7.91667 13.95 7.91667 14.1667C7.91667 14.3833 7.825 14.6 7.675 14.7583C7.51667 14.9083 7.3 15 7.08333 15Z" fill="#A2A4A9"/>
<path d="M10.0001 15C9.78341 15 9.56675 14.9083 9.40842 14.7583C9.25842 14.6 9.16675 14.3833 9.16675 14.1667C9.16675 14.0583 9.19175 13.95 9.23342 13.85C9.27508 13.7417 9.33342 13.65 9.40842 13.575C9.71675 13.2667 10.2834 13.2667 10.5917 13.575C10.6667 13.65 10.7251 13.7417 10.7667 13.85C10.8084 13.95 10.8334 14.0583 10.8334 14.1667C10.8334 14.3833 10.7417 14.6 10.5917 14.7583C10.4334 14.9083 10.2167 15 10.0001 15Z" fill="#A2A4A9"/>
<path d="M12.9166 15C12.6999 15 12.4833 14.9084 12.3249 14.7584C12.2499 14.6834 12.1916 14.5917 12.1499 14.4834C12.1083 14.3834 12.0833 14.275 12.0833 14.1667C12.0833 14.0584 12.1083 13.95 12.1499 13.85C12.1916 13.7417 12.2499 13.6501 12.3249 13.5751C12.5166 13.3834 12.8083 13.2917 13.0749 13.35C13.1333 13.3584 13.1833 13.375 13.2333 13.4C13.2833 13.4167 13.3333 13.4417 13.3833 13.4751C13.4249 13.5001 13.4666 13.5417 13.5083 13.5751C13.6583 13.7334 13.7499 13.95 13.7499 14.1667C13.7499 14.3834 13.6583 14.6 13.5083 14.7584C13.3499 14.9084 13.1333 15 12.9166 15Z" fill="#A2A4A9"/>
<path d="M17.0834 8.19995H2.91675C2.57508 8.19995 2.29175 7.91662 2.29175 7.57495C2.29175 7.23328 2.57508 6.94995 2.91675 6.94995H17.0834C17.4251 6.94995 17.7084 7.23328 17.7084 7.57495C17.7084 7.91662 17.4251 8.19995 17.0834 8.19995Z" fill="#A2A4A9"/>
<path d="M13.3333 18.9583H6.66667C3.625 18.9583 1.875 17.2083 1.875 14.1666V7.08329C1.875 4.04163 3.625 2.29163 6.66667 2.29163H13.3333C16.375 2.29163 18.125 4.04163 18.125 7.08329V14.1666C18.125 17.2083 16.375 18.9583 13.3333 18.9583ZM6.66667 3.54163C4.28333 3.54163 3.125 4.69996 3.125 7.08329V14.1666C3.125 16.55 4.28333 17.7083 6.66667 17.7083H13.3333C15.7167 17.7083 16.875 16.55 16.875 14.1666V7.08329C16.875 4.69996 15.7167 3.54163 13.3333 3.54163H6.66667Z" fill="#A2A4A9"/>
</svg>
