<svg width="20" height="20" viewBox="0 0 20 20" fill="none" xmlns="http://www.w3.org/2000/svg">
    <path d="M14.167 11.165v2.5c0 3.334-1.334 4.667-4.667 4.667H6.333c-3.333 0-4.666-1.333-4.666-4.667V10.5c0-3.334 1.333-4.667 4.666-4.667h2.5" stroke="#A2A4A9" stroke-width="1.25" stroke-linecap="round" stroke-linejoin="round"/>
    <path d="M14.166 11.165H11.5c-2 0-2.667-.666-2.667-2.666V5.832l5.333 5.333zM9.666 1.668H13M5.833 4.168c0-1.383 1.117-2.5 2.5-2.5h2.184M18.333 6.668v5.158a2.344 2.344 0 0 1-2.342 2.342M18.333 6.668h-2.5c-1.875 0-2.5-.625-2.5-2.5v-2.5l5 5z" stroke="#A2A4A9" stroke-width="1.25" stroke-linecap="round" stroke-linejoin="round"/>
</svg>
