<svg width="20" height="20" viewBox="0 0 20 20" fill="none" xmlns="http://www.w3.org/2000/svg">
    <path d="m7.516 11.415.325.568.462-.463 3.217-3.217.463-.462-.568-.325a2.862 2.862 0 0 0-3.899 3.899zm.376.818a.125.125 0 0 1-.047-.008.124.124 0 0 1-.042-.029A3.088 3.088 0 0 1 6.892 10 3.11 3.11 0 0 1 10 6.892c.825 0 1.607.322 2.196.911a.125.125 0 0 1 0 .177L7.98 12.196a.123.123 0 0 1-.042.029.125.125 0 0 1-.046.008z" fill="#A2A4A9" stroke="#A2A4A9"/>
    <path d="m4.582 14.894.002.001a.137.137 0 0 0 .083.03.105.105 0 0 0 .08-.034l.004-.005a.13.13 0 0 0-.012-.183 11.942 11.942 0 0 1-2.226-2.608c-.378-.59-.548-1.36-.548-2.095 0-.735.17-1.505.547-2.094C4.378 4.977 7.095 3.233 10 3.233c1.677 0 3.331.584 4.777 1.677a.125.125 0 0 0 .147-.203C13.419 3.575 11.715 2.983 10 2.983c-2.916 0-5.731 1.711-7.695 4.786l2.277 7.125zm0 0a11.595 11.595 0 0 1-2.276-2.66m2.276 2.66-2.276-2.66m0 0-.002-.004m.002.003-.002-.003m0 0c-.379-.59-.583-1.394-.583-2.227m.583 2.227-.583-2.227m0 0c0-.832.204-1.64.584-2.234l-.584 2.234z" fill="#A2A4A9" stroke="#A2A4A9"/>
    <path d="M10 17.517a8.228 8.228 0 0 1-3.233-.667.625.625 0 0 1 .483-1.15 6.994 6.994 0 0 0 2.742.567c2.691 0 5.266-1.617 7.066-4.442.625-.975.625-2.675 0-3.65-.258-.408-.541-.8-.841-1.167a.633.633 0 0 1 .091-.883.625.625 0 0 1 .884.092c.325.4.641.833.925 1.283.883 1.375.883 3.617 0 5-2.034 3.183-4.992 5.017-8.117 5.017z" fill="#A2A4A9"/>
    <path d="M10.575 13.559a.632.632 0 0 1-.617-.509.613.613 0 0 1 .5-.725 2.35 2.35 0 0 0 1.85-1.85.632.632 0 0 1 .734-.5.626.626 0 0 1 .5.734 3.58 3.58 0 0 1-2.85 2.85c-.042-.009-.075 0-.117 0zM1.667 18.958a.618.618 0 0 1-.442-.183.629.629 0 0 1 0-.883l6.225-6.225a.629.629 0 0 1 .883 0 .629.629 0 0 1 0 .883l-6.225 6.225a.618.618 0 0 1-.441.183zM12.108 8.517a.618.618 0 0 1-.441-.183.629.629 0 0 1 0-.884l6.225-6.225a.629.629 0 0 1 .883 0 .629.629 0 0 1 0 .884L12.55 8.334a.618.618 0 0 1-.442.183z" fill="#A2A4A9"/>
</svg>
