<svg width="16" height="16" viewBox="0 0 16 16" fill="none" xmlns="http://www.w3.org/2000/svg">
<path fill-rule="evenodd" clip-rule="evenodd" d="M2.49934 15.8804C3.45511 16.4689 5.34292 14.838 7.16458 12.0377L15.7755 13.9331C15.9652 13.9749 16.0779 13.7299 15.9356 13.5849L9.67356 7.20119C11.0836 3.71724 11.4489 0.7488 10.427 0.119593C9.35034 -0.543304 7.09091 1.6101 5.07566 5.07905C4.92916 4.83135 4.73471 4.61059 4.49597 4.43511L3.00961 3.34261C2.09919 2.67344 0.889626 2.91623 0.307964 3.88489C-0.273698 4.85356 -0.00719326 6.18128 0.90322 6.85045L2.38959 7.94295C2.71912 8.18517 3.08785 8.3079 3.45182 8.31997C1.87889 12.0076 1.43088 15.2226 2.49934 15.8804Z" fill="#5880F8"/>
</svg>
