<svg width="112" height="20" viewBox="0 0 112 20" fill="none" xmlns="http://www.w3.org/2000/svg">
    <path d="M26.974 19.82c-2.538 0-4.351-.817-5.439-2.452l2.9-2.796c.696 1.085 1.564 1.627 2.606 1.627 1.24 0 2.002-.718 2.289-2.154l1.382-7.083H25.23l.702-3.507h9.925l-2.062 10.338c-.423 2.154-1.186 3.698-2.289 4.63-1.102.932-2.613 1.398-4.531 1.398zM41.875 19.706c-1.3 0-2.432-.229-3.4-.687-.966-.474-1.714-1.139-2.242-1.995-.529-.855-.793-1.849-.793-2.98 0-1.36.324-2.582.974-3.667.65-1.085 1.548-1.94 2.696-2.567 1.148-.627 2.44-.94 3.875-.94 1.3 0 2.432.237 3.399.71.966.46 1.714 1.116 2.243 1.972.529.84.793 1.826.793 2.957 0 1.36-.325 2.59-.974 3.69-.65 1.085-1.549 1.941-2.697 2.567-1.133.627-2.424.94-3.874.94zm.249-3.507c.861 0 1.563-.32 2.107-.962.544-.642.816-1.475.816-2.499 0-.733-.204-1.314-.612-1.742-.408-.428-.974-.642-1.7-.642-.86 0-1.563.321-2.106.963-.544.642-.816 1.482-.816 2.521 0 .734.204 1.315.611 1.742.408.413.975.62 1.7.62zM59.504 6.87c.906 0 1.752.23 2.538.688.8.443 1.442 1.092 1.926 1.948.483.856.725 1.857.725 3.003 0 1.36-.302 2.59-.907 3.69a6.682 6.682 0 0 1-2.424 2.567 6.207 6.207 0 0 1-3.33.94c-1.904 0-3.21-.657-3.92-1.971l-.34 1.765H49.67l3.354-17.008h4.305L56.24 8.016c.922-.764 2.01-1.146 3.263-1.146zm-2.085 9.33c.861 0 1.564-.322 2.108-.963.543-.642.815-1.475.815-2.499 0-.733-.211-1.314-.634-1.742-.408-.428-.974-.642-1.7-.642-.86 0-1.563.321-2.107.963-.544.642-.815 1.482-.815 2.521 0 .734.203 1.315.611 1.742.423.413.997.62 1.722.62zM75.757 10.836l5.325 8.664h-5.007l-3.648-5.776-2.063 1.88-.77 3.896h-4.418l3.172-16.045h4.418l-1.291 6.555 7.16-6.555h5.28l-8.158 7.38z" fill="#5880F8"/>
    <path d="M87.89 19.706c-1.299 0-2.432-.229-3.398-.687-.967-.474-1.715-1.139-2.244-1.995-.528-.855-.793-1.849-.793-2.98 0-1.36.325-2.582.975-3.667.65-1.085 1.548-1.94 2.696-2.567 1.148-.627 2.44-.94 3.875-.94 1.299 0 2.432.237 3.398.71.967.46 1.715 1.116 2.243 1.972.53.84.794 1.826.794 2.957 0 1.36-.325 2.59-.975 3.69-.65 1.085-1.548 1.941-2.696 2.567-1.133.627-2.425.94-3.875.94zm.25-3.507c.86 0 1.563-.32 2.107-.962.544-.642.816-1.475.816-2.499 0-.733-.204-1.314-.612-1.742-.408-.428-.975-.642-1.7-.642-.86 0-1.563.321-2.107.963-.544.642-.816 1.482-.816 2.521 0 .734.204 1.315.612 1.742.408.413.975.62 1.7.62zM105.701 12.578l4.124 6.922h-5.031l-2.515-4.24-1.767 1.558-.521 2.682h-4.305l3.353-17.008h4.305l-1.744 8.825 4.962-4.24H112l-6.299 5.5z" fill="#5880F8"/>
    <g clip-path="url(#8sq0dtnvka)">
        <path d="M11.744 18.12 9.885 20l-1.858-1.88c-3.653-.854-6.38-4.167-6.38-8.12 0-4.6 3.69-8.334 8.238-8.334 4.547 0 8.238 3.733 8.238 8.333 0 3.954-2.727 7.267-6.38 8.12zM4.96 12.845c1.21 1.825 3.025 2.987 5.056 2.987 2.03 0 3.846-1.161 5.055-2.987a7.34 7.34 0 0 0-5.055-2.013 7.341 7.341 0 0 0-5.056 2.013zm4.924-3.68c.656 0 1.284-.263 1.748-.732a2.515 2.515 0 0 0 .724-1.768c0-.663-.26-1.299-.724-1.768a2.457 2.457 0 0 0-1.748-.732c-.655 0-1.284.263-1.747.732a2.515 2.515 0 0 0-.724 1.768c0 .663.26 1.299.724 1.768a2.457 2.457 0 0 0 1.747.732z" fill="#5880F8"/>
    </g>
    <defs>
        <clipPath id="8sq0dtnvka">
            <path fill="#fff" d="M0 0h19.771v20H0z"/>
        </clipPath>
    </defs>
</svg>
