<svg width="20" height="20" viewBox="0 0 20 20" fill="none" xmlns="http://www.w3.org/2000/svg">
    <path d="M13.492 1.667H6.51c-3.033 0-4.842 1.808-4.842 4.841v6.984c0 2.341 1.075 3.95 2.967 4.558.55.192 1.183.283 1.875.283h6.983c.692 0 1.325-.091 1.875-.283 1.892-.608 2.967-2.217 2.967-4.558V6.508c0-3.033-1.808-4.841-4.842-4.841zm3.592 11.825c0 1.783-.7 2.908-2.108 3.375-.809-1.592-2.725-2.725-4.975-2.725-2.25 0-4.159 1.125-4.975 2.725h-.009c-1.391-.45-2.1-1.584-2.1-3.367V6.508c0-2.35 1.242-3.591 3.592-3.591h6.983c2.35 0 3.592 1.241 3.592 3.591v6.984z" fill="#9FB6FB"/>
    <path d="M10 6.667A2.98 2.98 0 0 0 7.018 9.65a2.987 2.987 0 0 0 2.984 2.992 2.987 2.987 0 0 0 2.983-2.992 2.98 2.98 0 0 0-2.983-2.983z" fill="#9FB6FB"/>
</svg>
