<svg width="16" height="16" viewBox="0 0 16 16" fill="none" xmlns="http://www.w3.org/2000/svg">
<path d="M7.66634 14.5007C3.89967 14.5007 0.833008 11.434 0.833008 7.66732C0.833008 3.90065 3.89967 0.833984 7.66634 0.833984C11.433 0.833984 14.4997 3.90065 14.4997 7.66732C14.4997 11.434 11.433 14.5007 7.66634 14.5007ZM7.66634 1.83398C4.44634 1.83398 1.83301 4.45398 1.83301 7.66732C1.83301 10.8807 4.44634 13.5007 7.66634 13.5007C10.8863 13.5007 13.4997 10.8807 13.4997 7.66732C13.4997 4.45398 10.8863 1.83398 7.66634 1.83398Z" fill="#404145"/>
<path d="M14.6666 15.1666C14.54 15.1666 14.4133 15.12 14.3133 15.02L12.98 13.6866C12.7866 13.4933 12.7866 13.1733 12.98 12.98C13.1733 12.7866 13.4933 12.7866 13.6866 12.98L15.02 14.3133C15.2133 14.5066 15.2133 14.8266 15.02 15.02C14.92 15.12 14.7933 15.1666 14.6666 15.1666Z" fill="#404145"/>
</svg>
