<svg width="8" height="8" viewBox="0 0 8 8" fill="none" xmlns="http://www.w3.org/2000/svg">
<path fill-rule="evenodd" clip-rule="evenodd" d="M3.12019 0.534521C4.30322 0.23703 5.6097 0.54995 6.53303 1.47328C7.22303 2.16328 7.59636 3.07995 7.58303 4.05661C7.56969 5.03328 7.1697 5.93996 6.4597 6.60996C6.01172 7.03587 5.46878 7.32006 4.89471 7.4635C5.46892 7.32009 6.01201 7.03587 6.46009 6.60986C7.17009 5.93986 7.57009 5.03318 7.58342 4.05652C7.59675 3.07985 7.22342 2.16318 6.53342 1.47318C5.60999 0.549751 4.30332 0.236863 3.12019 0.534521ZM0.316761 4.05789C0.330467 5.05844 0.741891 5.99069 1.47123 6.68238C2.16796 7.34477 3.08659 7.67318 4.00008 7.67318C4.91354 7.67318 5.83213 7.3448 6.52886 6.68246C7.25837 5.99398 7.66971 5.06164 7.68341 4.05788C7.69711 3.05417 7.31318 2.11152 6.60413 1.40247C5.16841 -0.0332462 2.83176 -0.0332462 1.39604 1.40247C0.686988 2.11152 0.303058 3.05417 0.316761 4.05788L0.316761 4.05789ZM1.95224 6.17397L1.95192 6.17366C1.35833 5.61556 1.02642 4.86142 1.01674 4.04867C1.00706 3.23545 1.31662 2.4714 1.89079 1.89723C2.47116 1.31686 3.23533 1.02653 4.00008 1.02653C4.76484 1.02653 5.52901 1.31686 6.10938 1.89723C6.68372 2.47157 6.99633 3.23889 6.98343 4.04827C6.97053 4.85808 6.63842 5.61575 6.04806 6.17385L6.04804 6.17386C4.9198 7.24086 3.08019 7.24391 1.95224 6.17397ZM3.24248 1.02005C2.72051 1.15111 2.22667 1.41993 1.82008 1.82652C1.22675 2.41985 0.906751 3.20986 0.916752 4.04986C0.926751 4.88986 1.27008 5.66985 1.88342 6.24652C2.6638 6.98677 3.7723 7.23037 4.76997 6.98033C3.7722 7.23054 2.66351 6.98697 1.88303 6.24662C1.26969 5.66995 0.926361 4.88996 0.916361 4.04996C0.906361 3.20996 1.22636 2.41995 1.81969 1.82661C2.22638 1.41992 2.72037 1.15107 3.24248 1.02005Z" fill="#C41835"/>
<path fill-rule="evenodd" clip-rule="evenodd" d="M2.92691 5.14012C2.80695 5.02815 2.61911 5.03233 2.50351 5.15191L2.50351 5.15191L2.50291 5.15255C2.39094 5.27251 2.39513 5.46035 2.51471 5.57594L2.51471 5.57595L2.51518 5.5764C2.92505 5.96236 3.46089 6.15667 3.99946 6.15667C4.538 6.15667 5.07382 5.96238 5.48368 5.57646C5.60435 5.46372 5.60761 5.27211 5.49602 5.15255C5.3833 5.03177 5.19161 5.0285 5.07202 5.14012L5.07178 5.14034C4.48106 5.69878 3.51787 5.69878 2.92714 5.14034L2.92714 5.14034L2.92691 5.14012Z" fill="#C41835"/>
<path fill-rule="evenodd" clip-rule="evenodd" d="M3.00052 2.94995C2.78881 2.94995 2.61719 3.12158 2.61719 3.33328C2.61719 3.54499 2.78881 3.71662 3.00052 3.71662C3.21223 3.71662 3.38385 3.54499 3.38385 3.33328C3.38385 3.12158 3.21223 2.94995 3.00052 2.94995ZM5.00052 2.94995C4.78881 2.94995 4.61719 3.12158 4.61719 3.33328C4.61719 3.54499 4.78881 3.71662 5.00052 3.71662C5.21223 3.71662 5.38385 3.54499 5.38385 3.33328C5.38385 3.12158 5.21223 2.94995 5.00052 2.94995Z" fill="#C41835"/>
</svg>
