<svg width="20" height="20" viewBox="0 0 20 20" fill="currentColor" xmlns="http://www.w3.org/2000/svg">
<path d="M17.4991 5.60839C17.4824 5.60839 17.4574 5.60839 17.4324 5.60839C13.0241 5.16673 8.62408 5.00006 4.26574 5.44173L2.56574 5.60839C2.21574 5.64173 1.90741 5.39173 1.87408 5.04173C1.84074 4.69173 2.09074 4.39173 2.43241 4.35839L4.13241 4.19173C8.56574 3.74173 13.0574 3.91673 17.5574 4.35839C17.8991 4.39173 18.1491 4.70006 18.1157 5.04173C18.0907 5.36673 17.8157 5.60839 17.4991 5.60839Z" fill="#525459"/>
<path d="M7.08265 4.76699C7.04932 4.76699 7.01598 4.76699 6.97432 4.75866C6.64098 4.70033 6.40765 4.37533 6.46598 4.04199L6.64932 2.95033C6.78265 2.15033 6.96598 1.04199 8.90765 1.04199H11.091C13.041 1.04199 13.2243 2.19199 13.3493 2.95866L13.5326 4.04199C13.591 4.38366 13.3576 4.70866 13.0243 4.75866C12.6826 4.81699 12.3576 4.58366 12.3076 4.25033L12.1243 3.16699C12.0076 2.44199 11.9826 2.30033 11.0993 2.30033H8.91598C8.03265 2.30033 8.01598 2.41699 7.89098 3.15866L7.69932 4.24199C7.64932 4.55033 7.38265 4.76699 7.08265 4.76699Z" fill="#525459"/>
<path d="M12.676 18.9586H7.32597C4.41764 18.9586 4.30097 17.3503 4.20931 16.0503L3.66764 7.65864C3.64264 7.31697 3.90931 7.01697 4.25097 6.99197C4.60097 6.97531 4.89264 7.23364 4.91764 7.57531L5.45931 15.967C5.55097 17.2336 5.58431 17.7086 7.32597 17.7086H12.676C14.426 17.7086 14.4593 17.2336 14.5426 15.967L15.0843 7.57531C15.1093 7.23364 15.4093 6.97531 15.751 6.99197C16.0926 7.01697 16.3593 7.30864 16.3343 7.65864L15.7926 16.0503C15.701 17.3503 15.5843 18.9586 12.676 18.9586Z" fill="#525459"/>
<path d="M11.3824 14.375H8.60742C8.26576 14.375 7.98242 14.0917 7.98242 13.75C7.98242 13.4083 8.26576 13.125 8.60742 13.125H11.3824C11.7241 13.125 12.0074 13.4083 12.0074 13.75C12.0074 14.0917 11.7241 14.375 11.3824 14.375Z" fill="#525459"/>
<path d="M12.0827 11.042H7.91602C7.57435 11.042 7.29102 10.7587 7.29102 10.417C7.29102 10.0753 7.57435 9.79199 7.91602 9.79199H12.0827C12.4243 9.79199 12.7077 10.0753 12.7077 10.417C12.7077 10.7587 12.4243 11.042 12.0827 11.042Z" fill="#525459"/>
</svg>
