<svg width="248" height="44" viewBox="0 0 248 44" fill="none" xmlns="http://www.w3.org/2000/svg">
    <path d="M59.727 43.605c-5.62 0-9.633-1.798-12.041-5.395l6.422-6.152c1.538 2.386 3.462 3.58 5.77 3.58 2.742 0 4.431-1.58 5.067-4.74l3.06-15.582H55.864L57.419 7.6h21.976l-4.566 22.743c-.937 4.74-2.626 8.136-5.067 10.186-2.442 2.051-5.787 3.076-10.035 3.076zM92.723 43.353c-2.877 0-5.386-.504-7.526-1.512-2.141-1.043-3.797-2.505-4.967-4.388-1.171-1.882-1.757-4.067-1.757-6.555 0-2.992.72-5.682 2.158-8.069 1.438-2.387 3.428-4.27 5.97-5.647 2.543-1.379 5.402-2.068 8.58-2.068 2.877 0 5.385.521 7.526 1.563 2.141 1.009 3.796 2.454 4.967 4.337 1.171 1.85 1.756 4.017 1.756 6.505 0 2.992-.719 5.699-2.157 8.119-1.439 2.387-3.429 4.27-5.971 5.648-2.509 1.378-5.368 2.067-8.58 2.067zm.552-7.715c1.906 0 3.461-.706 4.665-2.118 1.205-1.412 1.807-3.244 1.807-5.497 0-1.613-.452-2.89-1.355-3.832-.903-.941-2.157-1.412-3.763-1.412-1.906 0-3.462.706-4.666 2.118-1.204 1.412-1.806 3.26-1.806 5.547 0 1.614.451 2.891 1.355 3.832.903.908 2.157 1.362 3.763 1.362zM131.759 15.114c2.007 0 3.88.504 5.619 1.513 1.773.975 3.195 2.404 4.265 4.286 1.07 1.883 1.605 4.085 1.605 6.606 0 2.992-.669 5.699-2.007 8.119-1.304 2.387-3.094 4.27-5.368 5.648-2.241 1.378-4.7 2.067-7.375 2.067-4.215 0-7.108-1.445-8.68-4.336l-.753 3.883h-9.081l7.425-37.418h9.533l-2.408 12.153c2.04-1.68 4.449-2.52 7.225-2.52zm-4.616 20.524c1.907 0 3.462-.706 4.666-2.118 1.204-1.412 1.806-3.244 1.806-5.497 0-1.613-.468-2.89-1.405-3.832-.903-.941-2.157-1.412-3.763-1.412-1.906 0-3.461.706-4.666 2.118-1.204 1.412-1.806 3.26-1.806 5.547 0 1.614.452 2.891 1.355 3.832.936.908 2.207 1.362 3.813 1.362zM167.748 23.838 179.539 42.9h-11.088l-8.078-12.708-4.566 4.135-1.706 8.573h-9.783l7.024-35.3h9.784l-2.86 14.423L174.12 7.6h11.69l-18.062 16.238z" fill="#fff"/>
    <path d="M194.614 43.353c-2.876 0-5.385-.504-7.526-1.512-2.14-1.043-3.796-2.505-4.967-4.388-1.17-1.882-1.756-4.067-1.756-6.555 0-2.992.719-5.682 2.158-8.069 1.438-2.387 3.428-4.27 5.97-5.647 2.542-1.379 5.402-2.068 8.58-2.068 2.876 0 5.385.521 7.526 1.563 2.14 1.009 3.796 2.454 4.967 4.337 1.17 1.85 1.756 4.017 1.756 6.505 0 2.992-.719 5.699-2.158 8.119-1.438 2.387-3.428 4.27-5.97 5.648-2.509 1.378-5.369 2.067-8.58 2.067zm.552-7.715c1.907 0 3.462-.706 4.666-2.118 1.204-1.412 1.806-3.244 1.806-5.497 0-1.613-.451-2.89-1.354-3.832-.903-.941-2.158-1.412-3.763-1.412-1.907 0-3.462.706-4.666 2.118-1.204 1.412-1.807 3.26-1.807 5.547 0 1.614.452 2.891 1.355 3.832.903.908 2.158 1.362 3.763 1.362zM234.052 27.67l9.131 15.23h-11.138l-5.569-9.33-3.914 3.43-1.154 5.9h-9.532l7.425-37.418h9.533l-3.863 19.415 10.987-9.33H248l-13.948 12.104z" fill="#fff"/>
    <g clip-path="url(#4t9bxg04ma)">
        <path d="M26.004 39.864 21.889 44l-4.116-4.136C9.686 37.987 3.648 30.698 3.648 22c0-10.12 8.172-18.333 18.24-18.333C31.959 3.667 40.13 11.88 40.13 22c0 8.698-6.037 15.987-14.125 17.864zM10.986 28.263c2.678 4.015 6.698 6.57 11.194 6.57 4.495 0 8.517-2.553 11.193-6.57a16.313 16.313 0 0 0-11.193-4.43 16.313 16.313 0 0 0-11.194 4.43zm10.903-8.096c1.45 0 2.843-.58 3.869-1.61a5.514 5.514 0 0 0 1.603-3.89 5.514 5.514 0 0 0-1.603-3.89 5.458 5.458 0 0 0-3.87-1.61c-1.45 0-2.843.58-3.869 1.61a5.514 5.514 0 0 0-1.603 3.89c0 1.459.577 2.858 1.603 3.89a5.459 5.459 0 0 0 3.87 1.61z" fill="#fff"/>
    </g>
    <defs>
        <clipPath id="4t9bxg04ma">
            <path fill="#fff" d="M0 0h43.778v44H0z"/>
        </clipPath>
    </defs>
</svg>
