<svg width="256" height="45" viewBox="0 0 256 45" fill="none" xmlns="http://www.w3.org/2000/svg">
    <path fill-rule="evenodd" clip-rule="evenodd" d="M6.718 43.673c2.569 1.581 7.642-2.801 12.538-10.326l23.785 5.235c.32.07.51-.343.27-.587L25.998 20.348c3.79-9.363 4.772-17.341 2.026-19.032C25.13-.466 19.056 5.324 13.639 14.65a5.813 5.813 0 0 0-1.556-1.727L8.088 9.987C5.641 8.188 2.39 8.84.828 11.444c-1.564 2.603-.848 6.171 1.599 7.97l3.995 2.936c.885.65 1.875.98 2.852 1.013-4.224 9.907-5.427 18.543-2.556 20.31z" fill="#fff"/>
    <path d="M86.293 30.322V3.18h8.044v27.143c0 2.619-.574 4.87-1.722 6.753-1.148 1.865-2.717 3.3-4.708 4.304-1.973 1.004-4.197 1.506-6.672 1.506-2.564 0-4.833-.43-6.806-1.291-1.973-.86-3.524-2.179-4.654-3.955-1.13-1.793-1.695-4.062-1.695-6.806h8.098c0 1.435.197 2.574.592 3.417.412.843.995 1.444 1.748 1.802.754.359 1.66.538 2.717.538 1.023 0 1.91-.242 2.664-.726.753-.484 1.336-1.193 1.748-2.125.43-.933.646-2.072.646-3.417zM99.502 28.09v-.565c0-2.134.305-4.098.915-5.892.609-1.811 1.497-3.38 2.663-4.707 1.166-1.328 2.601-2.359 4.304-3.094 1.704-.753 3.659-1.13 5.865-1.13 2.206 0 4.17.377 5.892 1.13 1.721.735 3.165 1.766 4.331 3.093 1.184 1.328 2.08 2.897 2.69 4.708.61 1.794.915 3.758.915 5.892v.565c0 2.116-.305 4.08-.915 5.89-.61 1.794-1.506 3.364-2.69 4.709-1.166 1.327-2.601 2.358-4.304 3.093-1.704.736-3.659 1.103-5.865 1.103-2.206 0-4.17-.367-5.892-1.103-1.704-.735-3.147-1.766-4.331-3.093-1.166-1.345-2.054-2.915-2.663-4.708-.61-1.811-.915-3.775-.915-5.891zm7.748-.565v.565c0 1.22.107 2.358.323 3.416.215 1.058.556 1.99 1.022 2.798a5.328 5.328 0 0 0 1.883 1.856c.771.448 1.713.673 2.825.673 1.076 0 2-.225 2.771-.673a5.114 5.114 0 0 0 1.856-1.856c.466-.807.807-1.74 1.022-2.798.234-1.058.35-2.197.35-3.416v-.565c0-1.184-.116-2.296-.35-3.336-.215-1.058-.565-1.99-1.049-2.798a5.208 5.208 0 0 0-1.856-1.937c-.771-.466-1.704-.7-2.798-.7s-2.027.234-2.798.7c-.753.466-1.372 1.112-1.856 1.937-.466.807-.807 1.74-1.022 2.798a16.392 16.392 0 0 0-.323 3.336zM131.839 1.027h7.747v34.649l-.78 6.671h-6.967V1.027zm26.175 26.47v.566c0 2.17-.233 4.16-.699 5.972-.448 1.811-1.148 3.38-2.098 4.708a10.078 10.078 0 0 1-3.551 3.066c-1.399.718-3.049 1.076-4.951 1.076-1.775 0-3.317-.358-4.627-1.076-1.291-.717-2.376-1.73-3.255-3.04-.879-1.309-1.587-2.842-2.125-4.6-.538-1.757-.942-3.676-1.211-5.757v-1.237c.269-2.08.673-4 1.211-5.757.538-1.758 1.246-3.29 2.125-4.6.879-1.31 1.964-2.323 3.255-3.04 1.292-.717 2.816-1.076 4.574-1.076 1.919 0 3.587.368 5.004 1.103a9.45 9.45 0 0 1 3.551 3.067c.95 1.309 1.65 2.87 2.098 4.68.466 1.794.699 3.776.699 5.946zm-7.747.566v-.565c0-1.184-.09-2.296-.269-3.336-.162-1.058-.449-1.982-.861-2.77-.413-.808-.978-1.445-1.695-1.91-.7-.467-1.605-.7-2.717-.7-1.058 0-1.955.18-2.691.538a4.982 4.982 0 0 0-1.829 1.506c-.466.646-.816 1.417-1.049 2.314a14.09 14.09 0 0 0-.43 2.905v3.524c.053 1.417.286 2.672.699 3.766.43 1.076 1.076 1.928 1.937 2.556.879.61 2.018.915 3.417.915 1.094 0 1.999-.216 2.717-.646.717-.43 1.273-1.04 1.668-1.83.412-.788.699-1.712.86-2.77.162-1.076.243-2.242.243-3.497zM171.385 3.179v39.168h-8.071V3.18h8.071zm23.459 0-15.523 19.342-8.958 9.63-1.453-7.64 6.053-8.285 9.981-13.047h9.9zm-9.174 39.168-11.541-18.104 5.972-5.004 15.119 23.108h-9.55zM195.866 28.09v-.565c0-2.134.305-4.098.915-5.892.609-1.811 1.497-3.38 2.663-4.707 1.166-1.328 2.6-2.359 4.304-3.094 1.704-.753 3.659-1.13 5.865-1.13 2.206 0 4.17.377 5.892 1.13 1.721.735 3.165 1.766 4.331 3.093 1.184 1.328 2.08 2.897 2.69 4.708.61 1.794.915 3.758.915 5.892v.565c0 2.116-.305 4.08-.915 5.89-.61 1.794-1.506 3.364-2.69 4.709-1.166 1.327-2.601 2.358-4.305 3.093-1.703.736-3.658 1.103-5.864 1.103s-4.17-.367-5.892-1.103c-1.704-.735-3.147-1.766-4.331-3.093-1.166-1.345-2.054-2.915-2.663-4.708-.61-1.811-.915-3.775-.915-5.891zm7.748-.565v.565c0 1.22.107 2.358.323 3.416.215 1.058.556 1.99 1.022 2.798a5.328 5.328 0 0 0 1.883 1.856c.771.448 1.713.673 2.825.673 1.076 0 1.999-.225 2.771-.673a5.114 5.114 0 0 0 1.856-1.856c.466-.807.807-1.74 1.022-2.798a15.87 15.87 0 0 0 .35-3.416v-.565c0-1.184-.117-2.296-.35-3.336-.215-1.058-.565-1.99-1.049-2.798a5.208 5.208 0 0 0-1.856-1.937c-.771-.466-1.704-.7-2.798-.7s-2.027.234-2.798.7c-.753.466-1.372 1.112-1.856 1.937-.466.807-.807 1.74-1.022 2.798a16.392 16.392 0 0 0-.323 3.336zM235.95 1v41.347h-7.748V1h7.748zm18.348 12.24-12.644 14.42-6.78 6.859-2.825-5.595 5.381-6.833 7.559-8.85h9.309zm-8.044 29.107-8.609-13.45 5.354-4.681 12.186 18.131h-8.931z" fill="#fff"/>
</svg>
