<svg width="20" height="21" viewBox="0 0 20 21" fill="none" xmlns="http://www.w3.org/2000/svg">
    <path d="M6.667 5.291a.63.63 0 0 1-.625-.625v-2.5a.63.63 0 0 1 .625-.625.63.63 0 0 1 .625.625v2.5a.63.63 0 0 1-.625.625zM13.333 5.291a.63.63 0 0 1-.625-.625v-2.5a.63.63 0 0 1 .625-.625.63.63 0 0 1 .625.625v2.5a.63.63 0 0 1-.625.625zM7.083 12.584a.83.83 0 0 1-.316-.067.861.861 0 0 1-.275-.175.86.86 0 0 1-.242-.591.83.83 0 0 1 .067-.317c.041-.1.1-.192.175-.275a.86.86 0 0 1 .275-.175.851.851 0 0 1 .908.175c.15.158.242.375.242.592 0 .05-.009.108-.017.166a.53.53 0 0 1-.05.15.63.63 0 0 1-.075.15c-.025.042-.067.084-.1.125a.876.876 0 0 1-.592.242zM10 12.584a.83.83 0 0 1-.317-.067.861.861 0 0 1-.275-.175.86.86 0 0 1-.241-.592.83.83 0 0 1 .066-.316c.042-.1.1-.192.175-.275a.86.86 0 0 1 .275-.175.835.835 0 0 1 .909.175c.15.158.241.375.241.591 0 .05-.008.109-.016.167a.529.529 0 0 1-.05.15.633.633 0 0 1-.075.15c-.025.042-.067.083-.1.125a.876.876 0 0 1-.592.242zM12.917 12.584a.83.83 0 0 1-.317-.067.86.86 0 0 1-.275-.175l-.1-.125a.625.625 0 0 1-.075-.15.529.529 0 0 1-.05-.15 1.243 1.243 0 0 1-.017-.167c0-.216.092-.433.242-.591a.86.86 0 0 1 .275-.175.832.832 0 0 1 .908.175c.15.158.242.375.242.591 0 .05-.008.109-.017.167a.529.529 0 0 1-.05.15.633.633 0 0 1-.075.15c-.025.042-.066.083-.1.125a.876.876 0 0 1-.591.242zM7.083 15.5a.829.829 0 0 1-.316-.067.96.96 0 0 1-.275-.175.876.876 0 0 1-.242-.591.83.83 0 0 1 .067-.317c.041-.108.1-.2.175-.275.308-.308.875-.308 1.183 0 .15.158.242.375.242.592a.876.876 0 0 1-.242.591.876.876 0 0 1-.592.242zM10 15.5a.876.876 0 0 1-.592-.242.876.876 0 0 1-.241-.591.83.83 0 0 1 .066-.317c.042-.108.1-.2.175-.275.309-.308.875-.308 1.184 0a.779.779 0 0 1 .175.275c.041.1.066.208.066.317a.876.876 0 0 1-.241.591.876.876 0 0 1-.592.242zM12.917 15.5a.876.876 0 0 1-.592-.242.777.777 0 0 1-.175-.275.83.83 0 0 1-.067-.317.83.83 0 0 1 .067-.317c.042-.108.1-.2.175-.275a.832.832 0 0 1 .908-.175c.05.017.1.042.15.076.042.024.084.066.125.1.15.158.242.374.242.591a.876.876 0 0 1-.242.592.876.876 0 0 1-.591.241zM17.083 8.7H2.917a.63.63 0 0 1-.625-.626.63.63 0 0 1 .625-.625h14.166a.63.63 0 0 1 .625.625.63.63 0 0 1-.625.625z" fill="#A2A4A9"/>
    <path d="M13.333 19.458H6.667c-3.042 0-4.792-1.75-4.792-4.792V7.583c0-3.042 1.75-4.792 4.792-4.792h6.666c3.042 0 4.792 1.75 4.792 4.792v7.083c0 3.042-1.75 4.792-4.792 4.792zM6.667 4.04c-2.384 0-3.542 1.158-3.542 3.542v7.083c0 2.383 1.158 3.542 3.542 3.542h6.666c2.384 0 3.542-1.159 3.542-3.542V7.583c0-2.384-1.158-3.542-3.542-3.542H6.667z" fill="#A2A4A9"/>
</svg>
